**********************
PowerShell transcript start
Start time: 20230516173657
**********************
Transcript started, output file is ./logs/hevcnvenc_qpoffset_2_210723.mov.log
DEBUG Invoke-Process
File: ffmpeg
Arg: -y -nostats -hwaccel nvdec -i 210723.mov -an -c:v hevc_nvenc -preset:v p7 -profile:v main10 -rc:v constqp -rc-lookahead 1 -spatial-aq 0 -temporal-aq 1 -weighted_pred 0 -init_qpI 21 -init_qpP 21 -init_qpB 24 -qp_cb_offset 0 -qp_cr_offset 0 -b_ref_mode 1 -dpb_size 4 -multipass 1 -g 60 -bf 3 -pix_fmt yuv420p10le -color_range tv -color_primaries bt709 -color_trc bt709 -colorspace bt709 -movflags +faststart 210723.mov.mp4
ArgList:

ffmpeg version N-109952-g52a0852ae6-20230302 Copyright (c) 2000-2023 the FFmpeg developers
  libavdevice    60.  2.100 / 60.  2.100
  built with gcc 12.2.0 (crosstool-NG 1.25.0.90_cf9beb1)
  libswscale      7.  2.100 /  7.  2.100
  libavfilter     9.  4.100 /  9.  4.100
  libavformat    60.  4.100 / 60.  4.100
  libavcodec     60.  5.100 / 60.  5.100
  libswresample   4. 11.100 /  4. 11.100
  libpostproc    57.  2.100 / 57.  2.100
  configuration: --prefix=/ffbuild/prefix --pkg-config-flags=--static --pkg-config=pkg-config --cross-prefix=x86_64-w64-mingw32- --arch=x86_64 --target-os=mingw32 --enable-nonfree --enable-gpl --enable-version3 --disable-debug --disable-w32threads --enable-pthreads --enable-iconv --enable-libxml2 --enable-zlib --enable-libfreetype --enable-libfribidi --enable-gmp --enable-lzma --enable-fontconfig --enable-libvorbis --enable-opencl --disable-libpulse --enable-libvmaf --disable-libxcb --disable-xlib --enable-amf --enable-libaom --enable-libaribb24 --enable-avisynth --enable-chromaprint --enable-libdav1d --enable-libdavs2 --enable-libfdk-aac --enable-ffnvcodec --enable-cuda-llvm --enable-frei0r --enable-libgme --enable-libkvazaar --enable-libass --enable-libbluray --enable-libjxl --enable-libmp3lame --enable-libopus --enable-librist --enable-libssh --enable-libtheora --enable-libvpx --enable-libwebp --enable-lv2 --disable-libmfx --enable-libvpl --enable-openal --enable-libopencore-amrnb --enable-libopencore-amrwb --enable-libopenh264 --enable-libopenjpeg --enable-libopenmpt --enable-librav1e --enable-librubberband --enable-schannel --enable-sdl2 --enable-libsoxr --enable-libsrt --enable-libsvtav1 --enable-libtwolame --enable-libuavs3d --disable-libdrm --disable-vaapi --enable-libvidstab --enable-vulkan --enable-libshaderc --enable-libplacebo --enable-libx264 --enable-libx265 --enable-libxavs2 --enable-libxvid --enable-libzimg --enable-libzvbi --extra-cflags=-DLIBTWOLAME_STATIC --extra-cxxflags= --extra-ldflags=-pthread --extra-ldexeflags= --extra-libs=-lgomp --extra-version=20230302
  libavutil      58.  3.100 / 58.  3.100
Input #0, mov,mp4,m4a,3gp,3g2,mj2, from '210723.mov':
  Metadata:
    major_brand     : qt  
    minor_version   : 512
    compatible_brands: qt  
    encoder         : Lavf60.4.100
  Duration: 00:02:00.02, start: 0.000000, bitrate: 34372 kb/s
  Stream #0:0[0x1]: Video: dnxhd (DNXHR LB) (AVdh / 0x68645641), yuv422p(tv, bt709), 1440x1080, 34372 kb/s, SAR 4:3 DAR 16:9, 29.97 fps, 29.97 tbr, 30k tbn (default)
    Metadata:
      handler_name    : VideoHandler
      vendor_id       : FFMP
      encoder         : Lavc60.5.100 dnxhd
Stream mapping:
Press [q] to stop, [?] for help
  Stream #0:0 -> #0:0 (dnxhd (native) -> hevc (hevc_nvenc))
Incompatible pixel format 'yuv420p10le' for codec 'hevc_nvenc', auto-selecting format 'p010le'
Output #0, mp4, to '210723.mov.mp4':
    major_brand     : qt  
    minor_version   : 512
    compatible_brands: qt  
    encoder         : Lavf60.4.100
  Stream #0:0: Video: hevc (Main 10) (hev1 / 0x31766568), p010le(tv, bt709, progressive), 1440x1080 [SAR 4:3 DAR 16:9], q=2-31, 2000 kb/s, 29.97 fps, 30k tbn (default)
    Metadata:
      handler_name    : VideoHandler
  Metadata:
      vendor_id       : FFMP
    Side data:
      encoder         : Lavc60.5.100 hevc_nvenc
      cpb: bitrate max/min/avg: 0/0/2000000 buffer size: 4000000 vbv_delay: N/A
[mp4 @ 0000024d72969040] Starting second pass: moving the moov atom to the beginning of the file
frame= 3597 fps=161 q=20.0 Lsize=  110956kB time=00:01:59.88 bitrate=7581.8kbits/s speed=5.37x    
video:110925kB audio:0kB subtitle:0kB other streams:0kB global headers:0kB muxing overhead: 0.028248%
DEBUG ExitCode: 0
DEBUG Invoke-Process
File: ffmpeg
Arg: -y -nostats -i 210723.mov.mp4 -i 210723.mov -filter_complex libvmaf=model=version=vmaf_v0.6.1neg\\:name=vmaf_neg -an -f null -
ArgList:

ffmpeg version N-109952-g52a0852ae6-20230302 Copyright (c) 2000-2023 the FFmpeg developers
  built with gcc 12.2.0 (crosstool-NG 1.25.0.90_cf9beb1)
  configuration: --prefix=/ffbuild/prefix --pkg-config-flags=--static --pkg-config=pkg-config --cross-prefix=x86_64-w64-mingw32- --arch=x86_64 --target-os=mingw32 --enable-nonfree --enable-gpl --enable-version3 --disable-debug --disable-w32threads --enable-pthreads --enable-iconv --enable-libxml2 --enable-zlib --enable-libfreetype --enable-libfribidi --enable-gmp --enable-lzma --enable-fontconfig --enable-libvorbis --enable-opencl --disable-libpulse --enable-libvmaf --disable-libxcb --disable-xlib --enable-amf --enable-libaom --enable-libaribb24 --enable-avisynth --enable-chromaprint --enable-libdav1d --enable-libdavs2 --enable-libfdk-aac --enable-ffnvcodec --enable-cuda-llvm --enable-frei0r --enable-libgme --enable-libkvazaar --enable-libass --enable-libbluray --enable-libjxl --enable-libmp3lame --enable-libopus --enable-librist --enable-libssh --enable-libtheora --enable-libvpx --enable-libwebp --enable-lv2 --disable-libmfx --enable-libvpl --enable-openal --enable-libopencore-amrnb --enable-libopencore-amrwb --enable-libopenh264 --enable-libopenjpeg --enable-libopenmpt --enable-librav1e --enable-librubberband --enable-schannel --enable-sdl2 --enable-libsoxr --enable-libsrt --enable-libsvtav1 --enable-libtwolame --enable-libuavs3d --disable-libdrm --disable-vaapi --enable-libvidstab --enable-vulkan --enable-libshaderc --enable-libplacebo --enable-libx264 --enable-libx265 --enable-libxavs2 --enable-libxvid --enable-libzimg --enable-libzvbi --extra-cflags=-DLIBTWOLAME_STATIC --extra-cxxflags= --extra-ldflags=-pthread --extra-ldexeflags= --extra-libs=-lgomp --extra-version=20230302
  libavutil      58.  3.100 / 58.  3.100
  libavcodec     60.  5.100 / 60.  5.100
  libavformat    60.  4.100 / 60.  4.100
  libavdevice    60.  2.100 / 60.  2.100
  libavfilter     9.  4.100 /  9.  4.100
  libswscale      7.  2.100 /  7.  2.100
  libpostproc    57.  2.100 / 57.  2.100
  libswresample   4. 11.100 /  4. 11.100
Input #0, mov,mp4,m4a,3gp,3g2,mj2, from '210723.mov.mp4':
  Metadata:
    major_brand     : isom
    minor_version   : 512
    compatible_brands: isomiso2mp41
    encoder         : Lavf60.4.100
  Duration: 00:02:00.02, start: 0.000000, bitrate: 7573 kb/s
  Stream #0:0[0x1](und): Video: hevc (Main 10) (hev1 / 0x31766568), yuv420p10le(tv, bt709, progressive), 1440x1080 [SAR 4:3 DAR 16:9], 7571 kb/s, 29.97 fps, 29.97 tbr, 30k tbn (default)
    Metadata:
      handler_name    : VideoHandler
      vendor_id       : [0][0][0][0]
      encoder         : Lavc60.5.100 hevc_nvenc
Input #1, mov,mp4,m4a,3gp,3g2,mj2, from '210723.mov':
    major_brand     : qt  
    minor_version   : 512
    compatible_brands: qt  
    encoder         : Lavf60.4.100
  Duration: 00:02:00.02, start: 0.000000, bitrate: 34372 kb/s
  Metadata:
    Metadata:
      vendor_id       : FFMP
      encoder         : Lavc60.5.100 dnxhd
      handler_name    : VideoHandler
  Stream #1:0[0x1]: Video: dnxhd (DNXHR LB) (AVdh / 0x68645641), yuv422p(tv, bt709), 1440x1080, 34372 kb/s, SAR 4:3 DAR 16:9, 29.97 fps, 29.97 tbr, 30k tbn (default)
Stream mapping:
  Stream #1:0 (dnxhd) -> libvmaf
  Stream #0:0 (hevc) -> libvmaf
  libvmaf:default -> Stream #0:0 (wrapped_avframe)
Press [q] to stop, [?] for help
Output #0, null, to 'pipe:':
  Metadata:
    major_brand     : isom
    minor_version   : 512
    compatible_brands: isomiso2mp41
    encoder         : Lavf60.4.100
  Stream #0:0: Video: wrapped_avframe, yuv420p10le(tv, bt709, progressive), 1440x1080 [SAR 4:3 DAR 16:9], q=2-31, 200 kb/s, 29.97 fps, 29.97 tbn
    Metadata:
      encoder         : Lavc60.5.100 wrapped_avframe
frame= 3596 fps= 10 q=-0.0 Lsize=N/A time=00:01:59.98 bitrate=N/A speed=0.332x    
video:1686kB audio:0kB subtitle:0kB other streams:0kB global headers:0kB muxing overhead: unknown
[Parsed_libvmaf_0 @ 00000168eb50ef00] VMAF score: 24.403069
DEBUG ExitCode: 0
DEBUG Invoke-Process
File: ffmpeg
Arg: -y -nostats -hwaccel nvdec -i 210723.mov -an -c:v hevc_nvenc -preset:v p7 -profile:v main10 -rc:v constqp -rc-lookahead 1 -spatial-aq 0 -temporal-aq 1 -weighted_pred 0 -init_qpI 21 -init_qpP 21 -init_qpB 24 -qp_cb_offset -12 -qp_cr_offset -12 -b_ref_mode 1 -dpb_size 4 -multipass 1 -g 60 -bf 3 -pix_fmt yuv420p10le -color_range tv -color_primaries bt709 -color_trc bt709 -colorspace bt709 -movflags +faststart 210723.mov.mp4
ArgList:

ffmpeg version N-109952-g52a0852ae6-20230302 Copyright (c) 2000-2023 the FFmpeg developers
  built with gcc 12.2.0 (crosstool-NG 1.25.0.90_cf9beb1)
  configuration: --prefix=/ffbuild/prefix --pkg-config-flags=--static --pkg-config=pkg-config --cross-prefix=x86_64-w64-mingw32- --arch=x86_64 --target-os=mingw32 --enable-nonfree --enable-gpl --enable-version3 --disable-debug --disable-w32threads --enable-pthreads --enable-iconv --enable-libxml2 --enable-zlib --enable-libfreetype --enable-libfribidi --enable-gmp --enable-lzma --enable-fontconfig --enable-libvorbis --enable-opencl --disable-libpulse --enable-libvmaf --disable-libxcb --disable-xlib --enable-amf --enable-libaom --enable-libaribb24 --enable-avisynth --enable-chromaprint --enable-libdav1d --enable-libdavs2 --enable-libfdk-aac --enable-ffnvcodec --enable-cuda-llvm --enable-frei0r --enable-libgme --enable-libkvazaar --enable-libass --enable-libbluray --enable-libjxl --enable-libmp3lame --enable-libopus --enable-librist --enable-libssh --enable-libtheora --enable-libvpx --enable-libwebp --enable-lv2 --disable-libmfx --enable-libvpl --enable-openal --enable-libopencore-amrnb --enable-libopencore-amrwb --enable-libopenh264 --enable-libopenjpeg --enable-libopenmpt --enable-librav1e --enable-librubberband --enable-schannel --enable-sdl2 --enable-libsoxr --enable-libsrt --enable-libsvtav1 --enable-libtwolame --enable-libuavs3d --disable-libdrm --disable-vaapi --enable-libvidstab --enable-vulkan --enable-libshaderc --enable-libplacebo --enable-libx264 --enable-libx265 --enable-libxavs2 --enable-libxvid --enable-libzimg --enable-libzvbi --extra-cflags=-DLIBTWOLAME_STATIC --extra-cxxflags= --extra-ldflags=-pthread --extra-ldexeflags= --extra-libs=-lgomp --extra-version=20230302
  libavutil      58.  3.100 / 58.  3.100
  libavcodec     60.  5.100 / 60.  5.100
  libavformat    60.  4.100 / 60.  4.100
  libavdevice    60.  2.100 / 60.  2.100
  libavfilter     9.  4.100 /  9.  4.100
  libswscale      7.  2.100 /  7.  2.100
  libswresample   4. 11.100 /  4. 11.100
  libpostproc    57.  2.100 / 57.  2.100
Input #0, mov,mp4,m4a,3gp,3g2,mj2, from '210723.mov':
  Metadata:
    minor_version   : 512
    compatible_brands: qt  
    encoder         : Lavf60.4.100
  Duration: 00:02:00.02, start: 0.000000, bitrate: 34372 kb/s
  Stream #0:0[0x1]: Video: dnxhd (DNXHR LB) (AVdh / 0x68645641), yuv422p(tv, bt709), 1440x1080, 34372 kb/s, SAR 4:3 DAR 16:9, 29.97 fps, 29.97 tbr, 30k tbn (default)
    Metadata:
      handler_name    : VideoHandler
      vendor_id       : FFMP
      encoder         : Lavc60.5.100 dnxhd
    major_brand     : qt  
Stream mapping:
  Stream #0:0 -> #0:0 (dnxhd (native) -> hevc (hevc_nvenc))
Press [q] to stop, [?] for help
Incompatible pixel format 'yuv420p10le' for codec 'hevc_nvenc', auto-selecting format 'p010le'
Output #0, mp4, to '210723.mov.mp4':
  Metadata:
    major_brand     : qt  
    minor_version   : 512
    compatible_brands: qt  
  Stream #0:0: Video: hevc (Main 10) (hev1 / 0x31766568), p010le(tv, bt709, progressive), 1440x1080 [SAR 4:3 DAR 16:9], q=2-31, 2000 kb/s, 29.97 fps, 30k tbn (default)
    encoder         : Lavf60.4.100
    Metadata:
      handler_name    : VideoHandler
      vendor_id       : FFMP
      encoder         : Lavc60.5.100 hevc_nvenc
    Side data:
      cpb: bitrate max/min/avg: 0/0/2000000 buffer size: 4000000 vbv_delay: N/A
[mp4 @ 0000028e7cec9040] Starting second pass: moving the moov atom to the beginning of the file
frame= 3597 fps=153 q=20.0 Lsize=  173917kB time=00:01:59.88 bitrate=11883.9kbits/s speed=5.11x    
video:173885kB audio:0kB subtitle:0kB other streams:0kB global headers:0kB muxing overhead: 0.018390%
DEBUG ExitCode: 0
DEBUG Invoke-Process
File: ffmpeg
Arg: -y -nostats -i 210723.mov.mp4 -i 210723.mov -filter_complex libvmaf=model=version=vmaf_v0.6.1neg\\:name=vmaf_neg -an -f null -
ArgList:

ffmpeg version N-109952-g52a0852ae6-20230302 Copyright (c) 2000-2023 the FFmpeg developers
  built with gcc 12.2.0 (crosstool-NG 1.25.0.90_cf9beb1)
  configuration: --prefix=/ffbuild/prefix --pkg-config-flags=--static --pkg-config=pkg-config --cross-prefix=x86_64-w64-mingw32- --arch=x86_64 --target-os=mingw32 --enable-nonfree --enable-gpl --enable-version3 --disable-debug --disable-w32threads --enable-pthreads --enable-iconv --enable-libxml2 --enable-zlib --enable-libfreetype --enable-libfribidi --enable-gmp --enable-lzma --enable-fontconfig --enable-libvorbis --enable-opencl --disable-libpulse --enable-libvmaf --disable-libxcb --disable-xlib --enable-amf --enable-libaom --enable-libaribb24 --enable-avisynth --enable-chromaprint --enable-libdav1d --enable-libdavs2 --enable-libfdk-aac --enable-ffnvcodec --enable-cuda-llvm --enable-frei0r --enable-libgme --enable-libkvazaar --enable-libass --enable-libbluray --enable-libjxl --enable-libmp3lame --enable-libopus --enable-librist --enable-libssh --enable-libtheora --enable-libvpx --enable-libwebp --enable-lv2 --disable-libmfx --enable-libvpl --enable-openal --enable-libopencore-amrnb --enable-libopencore-amrwb --enable-libopenh264 --enable-libopenjpeg --enable-libopenmpt --enable-librav1e --enable-librubberband --enable-schannel --enable-sdl2 --enable-libsoxr --enable-libsrt --enable-libsvtav1 --enable-libtwolame --enable-libuavs3d --disable-libdrm --disable-vaapi --enable-libvidstab --enable-vulkan --enable-libshaderc --enable-libplacebo --enable-libx264 --enable-libx265 --enable-libxavs2 --enable-libxvid --enable-libzimg --enable-libzvbi --extra-cflags=-DLIBTWOLAME_STATIC --extra-cxxflags= --extra-ldflags=-pthread --extra-ldexeflags= --extra-libs=-lgomp --extra-version=20230302
  libavutil      58.  3.100 / 58.  3.100
  libavcodec     60.  5.100 / 60.  5.100
  libavformat    60.  4.100 / 60.  4.100
  libavdevice    60.  2.100 / 60.  2.100
  libavfilter     9.  4.100 /  9.  4.100
  libswscale      7.  2.100 /  7.  2.100
  libswresample   4. 11.100 /  4. 11.100
  libpostproc    57.  2.100 / 57.  2.100
Input #0, mov,mp4,m4a,3gp,3g2,mj2, from '210723.mov.mp4':
  Metadata:
    major_brand     : isom
    compatible_brands: isomiso2mp41
    encoder         : Lavf60.4.100
  Duration: 00:02:00.02, start: 0.000000, bitrate: 11870 kb/s
  Stream #0:0[0x1](und): Video: hevc (Main 10) (hev1 / 0x31766568), yuv420p10le(tv, bt709, progressive), 1440x1080 [SAR 4:3 DAR 16:9], 11868 kb/s, 29.97 fps, 29.97 tbr, 30k tbn (default)
    Metadata:
      handler_name    : VideoHandler
      vendor_id       : [0][0][0][0]
      encoder         : Lavc60.5.100 hevc_nvenc
    minor_version   : 512
Input #1, mov,mp4,m4a,3gp,3g2,mj2, from '210723.mov':
  Metadata:
    minor_version   : 512
    compatible_brands: qt  
    encoder         : Lavf60.4.100
    major_brand     : qt  
  Duration: 00:02:00.02, start: 0.000000, bitrate: 34372 kb/s
  Stream #1:0[0x1]: Video: dnxhd (DNXHR LB) (AVdh / 0x68645641), yuv422p(tv, bt709), 1440x1080, 34372 kb/s, SAR 4:3 DAR 16:9, 29.97 fps, 29.97 tbr, 30k tbn (default)
    Metadata:
      handler_name    : VideoHandler
      vendor_id       : FFMP
      encoder         : Lavc60.5.100 dnxhd
Stream mapping:
  Stream #0:0 (hevc) -> libvmaf
  libvmaf:default -> Stream #0:0 (wrapped_avframe)
Press [q] to stop, [?] for help
  Stream #1:0 (dnxhd) -> libvmaf
Output #0, null, to 'pipe:':
  Metadata:
    major_brand     : isom
    minor_version   : 512
    compatible_brands: isomiso2mp41
    encoder         : Lavf60.4.100
  Stream #0:0: Video: wrapped_avframe, yuv420p10le(tv, bt709, progressive), 1440x1080 [SAR 4:3 DAR 16:9], q=2-31, 200 kb/s, 29.97 fps, 29.97 tbn
    Metadata:
      encoder         : Lavc60.5.100 wrapped_avframe
frame= 3597 fps=9.1 q=-0.0 Lsize=N/A time=00:01:59.98 bitrate=N/A speed=0.304x    
video:1686kB audio:0kB subtitle:0kB other streams:0kB global headers:0kB muxing overhead: unknown
[Parsed_libvmaf_0 @ 000001ad74dc85c0] VMAF score: 97.180934
DEBUG ExitCode: 0
DEBUG Invoke-Process
File: ffmpeg
Arg: -y -nostats -hwaccel nvdec -i 210723.mov -an -c:v hevc_nvenc -preset:v p7 -profile:v main10 -rc:v constqp -rc-lookahead 1 -spatial-aq 0 -temporal-aq 1 -weighted_pred 0 -init_qpI 21 -init_qpP 21 -init_qpB 24 -qp_cb_offset -12 -qp_cr_offset 0 -b_ref_mode 1 -dpb_size 4 -multipass 1 -g 60 -bf 3 -pix_fmt yuv420p10le -color_range tv -color_primaries bt709 -color_trc bt709 -colorspace bt709 -movflags +faststart 210723.mov.mp4
ArgList:

ffmpeg version N-109952-g52a0852ae6-20230302 Copyright (c) 2000-2023 the FFmpeg developers
  configuration: --prefix=/ffbuild/prefix --pkg-config-flags=--static --pkg-config=pkg-config --cross-prefix=x86_64-w64-mingw32- --arch=x86_64 --target-os=mingw32 --enable-nonfree --enable-gpl --enable-version3 --disable-debug --disable-w32threads --enable-pthreads --enable-iconv --enable-libxml2 --enable-zlib --enable-libfreetype --enable-libfribidi --enable-gmp --enable-lzma --enable-fontconfig --enable-libvorbis --enable-opencl --disable-libpulse --enable-libvmaf --disable-libxcb --disable-xlib --enable-amf --enable-libaom --enable-libaribb24 --enable-avisynth --enable-chromaprint --enable-libdav1d --enable-libdavs2 --enable-libfdk-aac --enable-ffnvcodec --enable-cuda-llvm --enable-frei0r --enable-libgme --enable-libkvazaar --enable-libass --enable-libbluray --enable-libjxl --enable-libmp3lame --enable-libopus --enable-librist --enable-libssh --enable-libtheora --enable-libvpx --enable-libwebp --enable-lv2 --disable-libmfx --enable-libvpl --enable-openal --enable-libopencore-amrnb --enable-libopencore-amrwb --enable-libopenh264 --enable-libopenjpeg --enable-libopenmpt --enable-librav1e --enable-librubberband --enable-schannel --enable-sdl2 --enable-libsoxr --enable-libsrt --enable-libsvtav1 --enable-libtwolame --enable-libuavs3d --disable-libdrm --disable-vaapi --enable-libvidstab --enable-vulkan --enable-libshaderc --enable-libplacebo --enable-libx264 --enable-libx265 --enable-libxavs2 --enable-libxvid --enable-libzimg --enable-libzvbi --extra-cflags=-DLIBTWOLAME_STATIC --extra-cxxflags= --extra-ldflags=-pthread --extra-ldexeflags= --extra-libs=-lgomp --extra-version=20230302
  libavutil      58.  3.100 / 58.  3.100
  libavcodec     60.  5.100 / 60.  5.100
  libavformat    60.  4.100 / 60.  4.100
  libavdevice    60.  2.100 / 60.  2.100
  libavfilter     9.  4.100 /  9.  4.100
  libswscale      7.  2.100 /  7.  2.100
  libswresample   4. 11.100 /  4. 11.100
  libpostproc    57.  2.100 / 57.  2.100
  built with gcc 12.2.0 (crosstool-NG 1.25.0.90_cf9beb1)
Input #0, mov,mp4,m4a,3gp,3g2,mj2, from '210723.mov':
  Metadata:
    minor_version   : 512
    major_brand     : qt  
    compatible_brands: qt  
    encoder         : Lavf60.4.100
  Duration: 00:02:00.02, start: 0.000000, bitrate: 34372 kb/s
  Stream #0:0[0x1]: Video: dnxhd (DNXHR LB) (AVdh / 0x68645641), yuv422p(tv, bt709), 1440x1080, 34372 kb/s, SAR 4:3 DAR 16:9, 29.97 fps, 29.97 tbr, 30k tbn (default)
    Metadata:
      vendor_id       : FFMP
      encoder         : Lavc60.5.100 dnxhd
      handler_name    : VideoHandler
Stream mapping:
  Stream #0:0 -> #0:0 (dnxhd (native) -> hevc (hevc_nvenc))
Press [q] to stop, [?] for help
Incompatible pixel format 'yuv420p10le' for codec 'hevc_nvenc', auto-selecting format 'p010le'
Output #0, mp4, to '210723.mov.mp4':
  Metadata:
    major_brand     : qt  
    minor_version   : 512
    compatible_brands: qt  
    encoder         : Lavf60.4.100
  Stream #0:0: Video: hevc (Main 10) (hev1 / 0x31766568), p010le(tv, bt709, progressive), 1440x1080 [SAR 4:3 DAR 16:9], q=2-31, 2000 kb/s, 29.97 fps, 30k tbn (default)
    Metadata:
      handler_name    : VideoHandler
      vendor_id       : FFMP
      encoder         : Lavc60.5.100 hevc_nvenc
    Side data:
      cpb: bitrate max/min/avg: 0/0/2000000 buffer size: 4000000 vbv_delay: N/A
[mp4 @ 0000027d0ffe9040] Starting second pass: moving the moov atom to the beginning of the file
frame= 3597 fps=153 q=20.0 Lsize=  142122kB time=00:01:59.88 bitrate=9711.4kbits/s speed=5.11x    
video:142090kB audio:0kB subtitle:0kB other streams:0kB global headers:0kB muxing overhead: 0.022380%
DEBUG ExitCode: 0
DEBUG Invoke-Process
File: ffmpeg
Arg: -y -nostats -i 210723.mov.mp4 -i 210723.mov -filter_complex libvmaf=model=version=vmaf_v0.6.1neg\\:name=vmaf_neg -an -f null -
ArgList:

ffmpeg version N-109952-g52a0852ae6-20230302 Copyright (c) 2000-2023 the FFmpeg developers
  built with gcc 12.2.0 (crosstool-NG 1.25.0.90_cf9beb1)
  configuration: --prefix=/ffbuild/prefix --pkg-config-flags=--static --pkg-config=pkg-config --cross-prefix=x86_64-w64-mingw32- --arch=x86_64 --target-os=mingw32 --enable-nonfree --enable-gpl --enable-version3 --disable-debug --disable-w32threads --enable-pthreads --enable-iconv --enable-libxml2 --enable-zlib --enable-libfreetype --enable-libfribidi --enable-gmp --enable-lzma --enable-fontconfig --enable-libvorbis --enable-opencl --disable-libpulse --enable-libvmaf --disable-libxcb --disable-xlib --enable-amf --enable-libaom --enable-libaribb24 --enable-avisynth --enable-chromaprint --enable-libdav1d --enable-libdavs2 --enable-libfdk-aac --enable-ffnvcodec --enable-cuda-llvm --enable-frei0r --enable-libgme --enable-libkvazaar --enable-libass --enable-libbluray --enable-libjxl --enable-libmp3lame --enable-libopus --enable-librist --enable-libssh --enable-libtheora --enable-libvpx --enable-libwebp --enable-lv2 --disable-libmfx --enable-libvpl --enable-openal --enable-libopencore-amrnb --enable-libopencore-amrwb --enable-libopenh264 --enable-libopenjpeg --enable-libopenmpt --enable-librav1e --enable-librubberband --enable-schannel --enable-sdl2 --enable-libsoxr --enable-libsrt --enable-libsvtav1 --enable-libtwolame --enable-libuavs3d --disable-libdrm --disable-vaapi --enable-libvidstab --enable-vulkan --enable-libshaderc --enable-libplacebo --enable-libx264 --enable-libx265 --enable-libxavs2 --enable-libxvid --enable-libzimg --enable-libzvbi --extra-cflags=-DLIBTWOLAME_STATIC --extra-cxxflags= --extra-ldflags=-pthread --extra-ldexeflags= --extra-libs=-lgomp --extra-version=20230302
  libavutil      58.  3.100 / 58.  3.100
  libavcodec     60.  5.100 / 60.  5.100
  libavformat    60.  4.100 / 60.  4.100
  libavdevice    60.  2.100 / 60.  2.100
  libavfilter     9.  4.100 /  9.  4.100
  libswscale      7.  2.100 /  7.  2.100
  libswresample   4. 11.100 /  4. 11.100
  libpostproc    57.  2.100 / 57.  2.100
Input #0, mov,mp4,m4a,3gp,3g2,mj2, from '210723.mov.mp4':
  Metadata:
    major_brand     : isom
    minor_version   : 512
    compatible_brands: isomiso2mp41
    encoder         : Lavf60.4.100
  Duration: 00:02:00.02, start: 0.000000, bitrate: 9700 kb/s
  Stream #0:0[0x1](und): Video: hevc (Main 10) (hev1 / 0x31766568), yuv420p10le(tv, bt709, progressive), 1440x1080 [SAR 4:3 DAR 16:9], 9698 kb/s, 29.97 fps, 29.97 tbr, 30k tbn (default)
      handler_name    : VideoHandler
      vendor_id       : [0][0][0][0]
      encoder         : Lavc60.5.100 hevc_nvenc
    Metadata:
Input #1, mov,mp4,m4a,3gp,3g2,mj2, from '210723.mov':
  Metadata:
    major_brand     : qt  
    minor_version   : 512
    compatible_brands: qt  
    encoder         : Lavf60.4.100
  Duration: 00:02:00.02, start: 0.000000, bitrate: 34372 kb/s
  Stream #1:0[0x1]: Video: dnxhd (DNXHR LB) (AVdh / 0x68645641), yuv422p(tv, bt709), 1440x1080, 34372 kb/s, SAR 4:3 DAR 16:9, 29.97 fps, 29.97 tbr, 30k tbn (default)
    Metadata:
      handler_name    : VideoHandler
      vendor_id       : FFMP
      encoder         : Lavc60.5.100 dnxhd
Stream mapping:
  Stream #0:0 (hevc) -> libvmaf
  Stream #1:0 (dnxhd) -> libvmaf
  libvmaf:default -> Stream #0:0 (wrapped_avframe)
Press [q] to stop, [?] for help
Output #0, null, to 'pipe:':
    major_brand     : isom
    minor_version   : 512
    compatible_brands: isomiso2mp41
    encoder         : Lavf60.4.100
  Metadata:
  Stream #0:0: Video: wrapped_avframe, yuv420p10le(tv, bt709, progressive), 1440x1080 [SAR 4:3 DAR 16:9], q=2-31, 200 kb/s, 29.97 fps, 29.97 tbn
    Metadata:
      encoder         : Lavc60.5.100 wrapped_avframe
frame= 3597 fps=8.8 q=-0.0 Lsize=N/A time=00:01:59.98 bitrate=N/A speed=0.294x    
video:1686kB audio:0kB subtitle:0kB other streams:0kB global headers:0kB muxing overhead: unknown
[Parsed_libvmaf_0 @ 000001bd04fd1780] VMAF score: 97.181164
DEBUG ExitCode: 0
DEBUG Invoke-Process
File: ffmpeg
Arg: -y -nostats -hwaccel nvdec -i 210723.mov -an -c:v hevc_nvenc -preset:v p7 -profile:v main10 -rc:v constqp -rc-lookahead 1 -spatial-aq 0 -temporal-aq 1 -weighted_pred 0 -init_qpI 21 -init_qpP 21 -init_qpB 24 -qp_cb_offset 0 -qp_cr_offset -12 -b_ref_mode 1 -dpb_size 4 -multipass 1 -g 60 -bf 3 -pix_fmt yuv420p10le -color_range tv -color_primaries bt709 -color_trc bt709 -colorspace bt709 -movflags +faststart 210723.mov.mp4
ArgList:

ffmpeg version N-109952-g52a0852ae6-20230302 Copyright (c) 2000-2023 the FFmpeg developers
  built with gcc 12.2.0 (crosstool-NG 1.25.0.90_cf9beb1)
  configuration: --prefix=/ffbuild/prefix --pkg-config-flags=--static --pkg-config=pkg-config --cross-prefix=x86_64-w64-mingw32- --arch=x86_64 --target-os=mingw32 --enable-nonfree --enable-gpl --enable-version3 --disable-debug --disable-w32threads --enable-pthreads --enable-iconv --enable-libxml2 --enable-zlib --enable-libfreetype --enable-libfribidi --enable-gmp --enable-lzma --enable-fontconfig --enable-libvorbis --enable-opencl --disable-libpulse --enable-libvmaf --disable-libxcb --disable-xlib --enable-amf --enable-libaom --enable-libaribb24 --enable-avisynth --enable-chromaprint --enable-libdav1d --enable-libdavs2 --enable-libfdk-aac --enable-ffnvcodec --enable-cuda-llvm --enable-frei0r --enable-libgme --enable-libkvazaar --enable-libass --enable-libbluray --enable-libjxl --enable-libmp3lame --enable-libopus --enable-librist --enable-libssh --enable-libtheora --enable-libvpx --enable-libwebp --enable-lv2 --disable-libmfx --enable-libvpl --enable-openal --enable-libopencore-amrnb --enable-libopencore-amrwb --enable-libopenh264 --enable-libopenjpeg --enable-libopenmpt --enable-librav1e --enable-librubberband --enable-schannel --enable-sdl2 --enable-libsoxr --enable-libsrt --enable-libsvtav1 --enable-libtwolame --enable-libuavs3d --disable-libdrm --disable-vaapi --enable-libvidstab --enable-vulkan --enable-libshaderc --enable-libplacebo --enable-libx264 --enable-libx265 --enable-libxavs2 --enable-libxvid --enable-libzimg --enable-libzvbi --extra-cflags=-DLIBTWOLAME_STATIC --extra-cxxflags= --extra-ldflags=-pthread --extra-ldexeflags= --extra-libs=-lgomp --extra-version=20230302
  libavutil      58.  3.100 / 58.  3.100
  libavcodec     60.  5.100 / 60.  5.100
  libavformat    60.  4.100 / 60.  4.100
  libavdevice    60.  2.100 / 60.  2.100
  libavfilter     9.  4.100 /  9.  4.100
  libswscale      7.  2.100 /  7.  2.100
  libswresample   4. 11.100 /  4. 11.100
  libpostproc    57.  2.100 / 57.  2.100
Input #0, mov,mp4,m4a,3gp,3g2,mj2, from '210723.mov':
    major_brand     : qt  
    minor_version   : 512
    compatible_brands: qt  
    encoder         : Lavf60.4.100
  Duration: 00:02:00.02, start: 0.000000, bitrate: 34372 kb/s
  Stream #0:0[0x1]: Video: dnxhd (DNXHR LB) (AVdh / 0x68645641), yuv422p(tv, bt709), 1440x1080, 34372 kb/s, SAR 4:3 DAR 16:9, 29.97 fps, 29.97 tbr, 30k tbn (default)
    Metadata:
      handler_name    : VideoHandler
      vendor_id       : FFMP
      encoder         : Lavc60.5.100 dnxhd
  Metadata:
Stream mapping:
  Stream #0:0 -> #0:0 (dnxhd (native) -> hevc (hevc_nvenc))
Press [q] to stop, [?] for help
Incompatible pixel format 'yuv420p10le' for codec 'hevc_nvenc', auto-selecting format 'p010le'
Output #0, mp4, to '210723.mov.mp4':
  Metadata:
    major_brand     : qt  
    minor_version   : 512
    compatible_brands: qt  
    encoder         : Lavf60.4.100
  Stream #0:0: Video: hevc (Main 10) (hev1 / 0x31766568), p010le(tv, bt709, progressive), 1440x1080 [SAR 4:3 DAR 16:9], q=2-31, 2000 kb/s, 29.97 fps, 30k tbn (default)
    Metadata:
      handler_name    : VideoHandler
      vendor_id       : FFMP
      encoder         : Lavc60.5.100 hevc_nvenc
    Side data:
      cpb: bitrate max/min/avg: 0/0/2000000 buffer size: 4000000 vbv_delay: N/A
[mp4 @ 000001bc891a9040] Starting second pass: moving the moov atom to the beginning of the file
frame= 3597 fps=153 q=20.0 Lsize=  147214kB time=00:01:59.88 bitrate=10059.3kbits/s speed= 5.1x    
video:147182kB audio:0kB subtitle:0kB other streams:0kB global headers:0kB muxing overhead: 0.021622%
DEBUG ExitCode: 0
DEBUG Invoke-Process
File: ffmpeg
Arg: -y -nostats -i 210723.mov.mp4 -i 210723.mov -filter_complex libvmaf=model=version=vmaf_v0.6.1neg\\:name=vmaf_neg -an -f null -
ArgList:

ffmpeg version N-109952-g52a0852ae6-20230302 Copyright (c) 2000-2023 the FFmpeg developers
  built with gcc 12.2.0 (crosstool-NG 1.25.0.90_cf9beb1)
  configuration: --prefix=/ffbuild/prefix --pkg-config-flags=--static --pkg-config=pkg-config --cross-prefix=x86_64-w64-mingw32- --arch=x86_64 --target-os=mingw32 --enable-nonfree --enable-gpl --enable-version3 --disable-debug --disable-w32threads --enable-pthreads --enable-iconv --enable-libxml2 --enable-zlib --enable-libfreetype --enable-libfribidi --enable-gmp --enable-lzma --enable-fontconfig --enable-libvorbis --enable-opencl --disable-libpulse --enable-libvmaf --disable-libxcb --disable-xlib --enable-amf --enable-libaom --enable-libaribb24 --enable-avisynth --enable-chromaprint --enable-libdav1d --enable-libdavs2 --enable-libfdk-aac --enable-ffnvcodec --enable-cuda-llvm --enable-frei0r --enable-libgme --enable-libkvazaar --enable-libass --enable-libbluray --enable-libjxl --enable-libmp3lame --enable-libopus --enable-librist --enable-libssh --enable-libtheora --enable-libvpx --enable-libwebp --enable-lv2 --disable-libmfx --enable-libvpl --enable-openal --enable-libopencore-amrnb --enable-libopencore-amrwb --enable-libopenh264 --enable-libopenjpeg --enable-libopenmpt --enable-librav1e --enable-librubberband --enable-schannel --enable-sdl2 --enable-libsoxr --enable-libsrt --enable-libsvtav1 --enable-libtwolame --enable-libuavs3d --disable-libdrm --disable-vaapi --enable-libvidstab --enable-vulkan --enable-libshaderc --enable-libplacebo --enable-libx264 --enable-libx265 --enable-libxavs2 --enable-libxvid --enable-libzimg --enable-libzvbi --extra-cflags=-DLIBTWOLAME_STATIC --extra-cxxflags= --extra-ldflags=-pthread --extra-ldexeflags= --extra-libs=-lgomp --extra-version=20230302
  libavutil      58.  3.100 / 58.  3.100
  libavcodec     60.  5.100 / 60.  5.100
  libavformat    60.  4.100 / 60.  4.100
  libavdevice    60.  2.100 / 60.  2.100
  libavfilter     9.  4.100 /  9.  4.100
  libswscale      7.  2.100 /  7.  2.100
  libswresample   4. 11.100 /  4. 11.100
  libpostproc    57.  2.100 / 57.  2.100
Input #0, mov,mp4,m4a,3gp,3g2,mj2, from '210723.mov.mp4':
    major_brand     : isom
    minor_version   : 512
    compatible_brands: isomiso2mp41
    encoder         : Lavf60.4.100
  Duration: 00:02:00.02, start: 0.000000, bitrate: 10048 kb/s
  Stream #0:0[0x1](und): Video: hevc (Main 10) (hev1 / 0x31766568), yuv420p10le(tv, bt709, progressive), 1440x1080 [SAR 4:3 DAR 16:9], 10045 kb/s, 29.97 fps, 29.97 tbr, 30k tbn (default)
    Metadata:
      handler_name    : VideoHandler
      vendor_id       : [0][0][0][0]
      encoder         : Lavc60.5.100 hevc_nvenc
  Metadata:
Input #1, mov,mp4,m4a,3gp,3g2,mj2, from '210723.mov':
  Metadata:
    minor_version   : 512
    compatible_brands: qt  
    major_brand     : qt  
    encoder         : Lavf60.4.100
  Duration: 00:02:00.02, start: 0.000000, bitrate: 34372 kb/s
  Stream #1:0[0x1]: Video: dnxhd (DNXHR LB) (AVdh / 0x68645641), yuv422p(tv, bt709), 1440x1080, 34372 kb/s, SAR 4:3 DAR 16:9, 29.97 fps, 29.97 tbr, 30k tbn (default)
    Metadata:
      handler_name    : VideoHandler
      vendor_id       : FFMP
      encoder         : Lavc60.5.100 dnxhd
Stream mapping:
  Stream #0:0 (hevc) -> libvmaf
  libvmaf:default -> Stream #0:0 (wrapped_avframe)
Press [q] to stop, [?] for help
  Stream #1:0 (dnxhd) -> libvmaf
Output #0, null, to 'pipe:':
  Metadata:
    major_brand     : isom
    compatible_brands: isomiso2mp41
    encoder         : Lavf60.4.100
  Stream #0:0: Video: wrapped_avframe, yuv420p10le(tv, bt709, progressive), 1440x1080 [SAR 4:3 DAR 16:9], q=2-31, 200 kb/s, 29.97 fps, 29.97 tbn
    Metadata:
      encoder         : Lavc60.5.100 wrapped_avframe
    minor_version   : 512
frame= 3597 fps=9.4 q=-0.0 Lsize=N/A time=00:01:59.98 bitrate=N/A speed=0.312x    
video:1686kB audio:0kB subtitle:0kB other streams:0kB global headers:0kB muxing overhead: unknown
[Parsed_libvmaf_0 @ 0000017f1cd56240] VMAF score: 97.182285
DEBUG ExitCode: 0
DEBUG Invoke-Process
File: ffmpeg
Arg: -y -nostats -hwaccel nvdec -i 210723.mov -an -c:v hevc_nvenc -preset:v p7 -profile:v main10 -rc:v constqp -rc-lookahead 1 -spatial-aq 0 -temporal-aq 1 -weighted_pred 0 -init_qpI 21 -init_qpP 21 -init_qpB 24 -qp_cb_offset 12 -qp_cr_offset 12 -b_ref_mode 1 -dpb_size 4 -multipass 1 -g 60 -bf 3 -pix_fmt yuv420p10le -color_range tv -color_primaries bt709 -color_trc bt709 -colorspace bt709 -movflags +faststart 210723.mov.mp4
ArgList:

ffmpeg version N-109952-g52a0852ae6-20230302 Copyright (c) 2000-2023 the FFmpeg developers
  built with gcc 12.2.0 (crosstool-NG 1.25.0.90_cf9beb1)
  configuration: --prefix=/ffbuild/prefix --pkg-config-flags=--static --pkg-config=pkg-config --cross-prefix=x86_64-w64-mingw32- --arch=x86_64 --target-os=mingw32 --enable-nonfree --enable-gpl --enable-version3 --disable-debug --disable-w32threads --enable-pthreads --enable-iconv --enable-libxml2 --enable-zlib --enable-libfreetype --enable-libfribidi --enable-gmp --enable-lzma --enable-fontconfig --enable-libvorbis --enable-opencl --disable-libpulse --enable-libvmaf --disable-libxcb --disable-xlib --enable-amf --enable-libaom --enable-libaribb24 --enable-avisynth --enable-chromaprint --enable-libdav1d --enable-libdavs2 --enable-libfdk-aac --enable-ffnvcodec --enable-cuda-llvm --enable-frei0r --enable-libgme --enable-libkvazaar --enable-libass --enable-libbluray --enable-libjxl --enable-libmp3lame --enable-libopus --enable-librist --enable-libssh --enable-libtheora --enable-libvpx --enable-libwebp --enable-lv2 --disable-libmfx --enable-libvpl --enable-openal --enable-libopencore-amrnb --enable-libopencore-amrwb --enable-libopenh264 --enable-libopenjpeg --enable-libopenmpt --enable-librav1e --enable-librubberband --enable-schannel --enable-sdl2 --enable-libsoxr --enable-libsrt --enable-libsvtav1 --enable-libtwolame --enable-libuavs3d --disable-libdrm --disable-vaapi --enable-libvidstab --enable-vulkan --enable-libshaderc --enable-libplacebo --enable-libx264 --enable-libx265 --enable-libxavs2 --enable-libxvid --enable-libzimg --enable-libzvbi --extra-cflags=-DLIBTWOLAME_STATIC --extra-cxxflags= --extra-ldflags=-pthread --extra-ldexeflags= --extra-libs=-lgomp --extra-version=20230302
  libavutil      58.  3.100 / 58.  3.100
  libavcodec     60.  5.100 / 60.  5.100
  libavformat    60.  4.100 / 60.  4.100
  libavdevice    60.  2.100 / 60.  2.100
  libavfilter     9.  4.100 /  9.  4.100
  libswscale      7.  2.100 /  7.  2.100
  libswresample   4. 11.100 /  4. 11.100
  libpostproc    57.  2.100 / 57.  2.100
Input #0, mov,mp4,m4a,3gp,3g2,mj2, from '210723.mov':
  Metadata:
    minor_version   : 512
    compatible_brands: qt  
    encoder         : Lavf60.4.100
  Duration: 00:02:00.02, start: 0.000000, bitrate: 34372 kb/s
  Stream #0:0[0x1]: Video: dnxhd (DNXHR LB) (AVdh / 0x68645641), yuv422p(tv, bt709), 1440x1080, 34372 kb/s, SAR 4:3 DAR 16:9, 29.97 fps, 29.97 tbr, 30k tbn (default)
    Metadata:
      handler_name    : VideoHandler
      vendor_id       : FFMP
      encoder         : Lavc60.5.100 dnxhd
    major_brand     : qt  
Stream mapping:
  Stream #0:0 -> #0:0 (dnxhd (native) -> hevc (hevc_nvenc))
Press [q] to stop, [?] for help
Incompatible pixel format 'yuv420p10le' for codec 'hevc_nvenc', auto-selecting format 'p010le'
Output #0, mp4, to '210723.mov.mp4':
  Metadata:
    major_brand     : qt  
    minor_version   : 512
    compatible_brands: qt  
    encoder         : Lavf60.4.100
  Stream #0:0: Video: hevc (Main 10) (hev1 / 0x31766568), p010le(tv, bt709, progressive), 1440x1080 [SAR 4:3 DAR 16:9], q=2-31, 2000 kb/s, 29.97 fps, 30k tbn (default)
    Metadata:
      handler_name    : VideoHandler
      vendor_id       : FFMP
      encoder         : Lavc60.5.100 hevc_nvenc
    Side data:
      cpb: bitrate max/min/avg: 0/0/2000000 buffer size: 4000000 vbv_delay: N/A
[mp4 @ 000001ecb9229040] Starting second pass: moving the moov atom to the beginning of the file
frame= 3597 fps=157 q=20.0 Lsize=  101923kB time=00:01:59.88 bitrate=6964.5kbits/s speed=5.22x    
video:101892kB audio:0kB subtitle:0kB other streams:0kB global headers:0kB muxing overhead: 0.030628%
DEBUG ExitCode: 0
DEBUG Invoke-Process
File: ffmpeg
Arg: -y -nostats -i 210723.mov.mp4 -i 210723.mov -filter_complex libvmaf=model=version=vmaf_v0.6.1neg\\:name=vmaf_neg -an -f null -
ArgList:

ffmpeg version N-109952-g52a0852ae6-20230302 Copyright (c) 2000-2023 the FFmpeg developers
  built with gcc 12.2.0 (crosstool-NG 1.25.0.90_cf9beb1)
  libavutil      58.  3.100 / 58.  3.100
  configuration: --prefix=/ffbuild/prefix --pkg-config-flags=--static --pkg-config=pkg-config --cross-prefix=x86_64-w64-mingw32- --arch=x86_64 --target-os=mingw32 --enable-nonfree --enable-gpl --enable-version3 --disable-debug --disable-w32threads --enable-pthreads --enable-iconv --enable-libxml2 --enable-zlib --enable-libfreetype --enable-libfribidi --enable-gmp --enable-lzma --enable-fontconfig --enable-libvorbis --enable-opencl --disable-libpulse --enable-libvmaf --disable-libxcb --disable-xlib --enable-amf --enable-libaom --enable-libaribb24 --enable-avisynth --enable-chromaprint --enable-libdav1d --enable-libdavs2 --enable-libfdk-aac --enable-ffnvcodec --enable-cuda-llvm --enable-frei0r --enable-libgme --enable-libkvazaar --enable-libass --enable-libbluray --enable-libjxl --enable-libmp3lame --enable-libopus --enable-librist --enable-libssh --enable-libtheora --enable-libvpx --enable-libwebp --enable-lv2 --disable-libmfx --enable-libvpl --enable-openal --enable-libopencore-amrnb --enable-libopencore-amrwb --enable-libopenh264 --enable-libopenjpeg --enable-libopenmpt --enable-librav1e --enable-librubberband --enable-schannel --enable-sdl2 --enable-libsoxr --enable-libsrt --enable-libsvtav1 --enable-libtwolame --enable-libuavs3d --disable-libdrm --disable-vaapi --enable-libvidstab --enable-vulkan --enable-libshaderc --enable-libplacebo --enable-libx264 --enable-libx265 --enable-libxavs2 --enable-libxvid --enable-libzimg --enable-libzvbi --extra-cflags=-DLIBTWOLAME_STATIC --extra-cxxflags= --extra-ldflags=-pthread --extra-ldexeflags= --extra-libs=-lgomp --extra-version=20230302
  libavcodec     60.  5.100 / 60.  5.100
  libavformat    60.  4.100 / 60.  4.100
  libavdevice    60.  2.100 / 60.  2.100
  libavfilter     9.  4.100 /  9.  4.100
  libswscale      7.  2.100 /  7.  2.100
  libswresample   4. 11.100 /  4. 11.100
  libpostproc    57.  2.100 / 57.  2.100
Input #0, mov,mp4,m4a,3gp,3g2,mj2, from '210723.mov.mp4':
  Metadata:
    major_brand     : isom
    minor_version   : 512
    compatible_brands: isomiso2mp41
    encoder         : Lavf60.4.100
  Duration: 00:02:00.02, start: 0.000000, bitrate: 6956 kb/s
  Stream #0:0[0x1](und): Video: hevc (Main 10) (hev1 / 0x31766568), yuv420p10le(tv, bt709, progressive), 1440x1080 [SAR 4:3 DAR 16:9], 6954 kb/s, 29.97 fps, 29.97 tbr, 30k tbn (default)
    Metadata:
      handler_name    : VideoHandler
      vendor_id       : [0][0][0][0]
      encoder         : Lavc60.5.100 hevc_nvenc
Input #1, mov,mp4,m4a,3gp,3g2,mj2, from '210723.mov':
  Metadata:
    major_brand     : qt  
    minor_version   : 512
    compatible_brands: qt  
    encoder         : Lavf60.4.100
  Duration: 00:02:00.02, start: 0.000000, bitrate: 34372 kb/s
  Stream #1:0[0x1]: Video: dnxhd (DNXHR LB) (AVdh / 0x68645641), yuv422p(tv, bt709), 1440x1080, 34372 kb/s, SAR 4:3 DAR 16:9, 29.97 fps, 29.97 tbr, 30k tbn (default)
    Metadata:
      handler_name    : VideoHandler
      vendor_id       : FFMP
      encoder         : Lavc60.5.100 dnxhd
Stream mapping:
  Stream #0:0 (hevc) -> libvmaf
  libvmaf:default -> Stream #0:0 (wrapped_avframe)
Press [q] to stop, [?] for help
  Stream #1:0 (dnxhd) -> libvmaf
Output #0, null, to 'pipe:':
  Metadata:
    major_brand     : isom
    minor_version   : 512
    compatible_brands: isomiso2mp41
    encoder         : Lavf60.4.100
  Stream #0:0: Video: wrapped_avframe, yuv420p10le(tv, bt709, progressive), 1440x1080 [SAR 4:3 DAR 16:9], q=2-31, 200 kb/s, 29.97 fps, 29.97 tbn
    Metadata:
      encoder         : Lavc60.5.100 wrapped_avframe
frame= 3597 fps=8.8 q=-0.0 Lsize=N/A time=00:01:59.98 bitrate=N/A speed=0.295x    
video:1686kB audio:0kB subtitle:0kB other streams:0kB global headers:0kB muxing overhead: unknown
[Parsed_libvmaf_0 @ 000002abb2130500] VMAF score: 97.183325
DEBUG ExitCode: 0
DEBUG Invoke-Process
File: ffmpeg
Arg: -y -nostats -hwaccel nvdec -i 210723.mov -an -c:v hevc_nvenc -preset:v p7 -profile:v main10 -rc:v constqp -rc-lookahead 1 -spatial-aq 0 -temporal-aq 1 -weighted_pred 0 -init_qpI 21 -init_qpP 21 -init_qpB 24 -qp_cb_offset 8 -qp_cr_offset 8 -b_ref_mode 1 -dpb_size 4 -multipass 1 -g 60 -bf 3 -pix_fmt yuv420p10le -color_range tv -color_primaries bt709 -color_trc bt709 -colorspace bt709 -movflags +faststart 210723.mov.mp4
ArgList:

ffmpeg version N-109952-g52a0852ae6-20230302 Copyright (c) 2000-2023 the FFmpeg developers
  configuration: --prefix=/ffbuild/prefix --pkg-config-flags=--static --pkg-config=pkg-config --cross-prefix=x86_64-w64-mingw32- --arch=x86_64 --target-os=mingw32 --enable-nonfree --enable-gpl --enable-version3 --disable-debug --disable-w32threads --enable-pthreads --enable-iconv --enable-libxml2 --enable-zlib --enable-libfreetype --enable-libfribidi --enable-gmp --enable-lzma --enable-fontconfig --enable-libvorbis --enable-opencl --disable-libpulse --enable-libvmaf --disable-libxcb --disable-xlib --enable-amf --enable-libaom --enable-libaribb24 --enable-avisynth --enable-chromaprint --enable-libdav1d --enable-libdavs2 --enable-libfdk-aac --enable-ffnvcodec --enable-cuda-llvm --enable-frei0r --enable-libgme --enable-libkvazaar --enable-libass --enable-libbluray --enable-libjxl --enable-libmp3lame --enable-libopus --enable-librist --enable-libssh --enable-libtheora --enable-libvpx --enable-libwebp --enable-lv2 --disable-libmfx --enable-libvpl --enable-openal --enable-libopencore-amrnb --enable-libopencore-amrwb --enable-libopenh264 --enable-libopenjpeg --enable-libopenmpt --enable-librav1e --enable-librubberband --enable-schannel --enable-sdl2 --enable-libsoxr --enable-libsrt --enable-libsvtav1 --enable-libtwolame --enable-libuavs3d --disable-libdrm --disable-vaapi --enable-libvidstab --enable-vulkan --enable-libshaderc --enable-libplacebo --enable-libx264 --enable-libx265 --enable-libxavs2 --enable-libxvid --enable-libzimg --enable-libzvbi --extra-cflags=-DLIBTWOLAME_STATIC --extra-cxxflags= --extra-ldflags=-pthread --extra-ldexeflags= --extra-libs=-lgomp --extra-version=20230302
  libavutil      58.  3.100 / 58.  3.100
  libavcodec     60.  5.100 / 60.  5.100
  libavformat    60.  4.100 / 60.  4.100
  libavdevice    60.  2.100 / 60.  2.100
  libavfilter     9.  4.100 /  9.  4.100
  libswscale      7.  2.100 /  7.  2.100
  libswresample   4. 11.100 /  4. 11.100
  libpostproc    57.  2.100 / 57.  2.100
  built with gcc 12.2.0 (crosstool-NG 1.25.0.90_cf9beb1)
Input #0, mov,mp4,m4a,3gp,3g2,mj2, from '210723.mov':
  Metadata:
    major_brand     : qt  
    minor_version   : 512
    compatible_brands: qt  
    encoder         : Lavf60.4.100
  Duration: 00:02:00.02, start: 0.000000, bitrate: 34372 kb/s
  Stream #0:0[0x1]: Video: dnxhd (DNXHR LB) (AVdh / 0x68645641), yuv422p(tv, bt709), 1440x1080, 34372 kb/s, SAR 4:3 DAR 16:9, 29.97 fps, 29.97 tbr, 30k tbn (default)
      handler_name    : VideoHandler
    Metadata:
      vendor_id       : FFMP
      encoder         : Lavc60.5.100 dnxhd
Stream mapping:
Press [q] to stop, [?] for help
  Stream #0:0 -> #0:0 (dnxhd (native) -> hevc (hevc_nvenc))
Incompatible pixel format 'yuv420p10le' for codec 'hevc_nvenc', auto-selecting format 'p010le'
Output #0, mp4, to '210723.mov.mp4':
  Metadata:
    major_brand     : qt  
    minor_version   : 512
    compatible_brands: qt  
    encoder         : Lavf60.4.100
  Stream #0:0: Video: hevc (Main 10) (hev1 / 0x31766568), p010le(tv, bt709, progressive), 1440x1080 [SAR 4:3 DAR 16:9], q=2-31, 2000 kb/s, 29.97 fps, 30k tbn (default)
    Metadata:
      handler_name    : VideoHandler
      vendor_id       : FFMP
      encoder         : Lavc60.5.100 hevc_nvenc
    Side data:
      cpb: bitrate max/min/avg: 0/0/2000000 buffer size: 4000000 vbv_delay: N/A
[mp4 @ 000002393f009040] Starting second pass: moving the moov atom to the beginning of the file
frame= 3597 fps=152 q=20.0 Lsize=  102475kB time=00:01:59.88 bitrate=7002.2kbits/s speed=5.05x    
video:102443kB audio:0kB subtitle:0kB other streams:0kB global headers:0kB muxing overhead: 0.030570%
DEBUG ExitCode: 0
DEBUG Invoke-Process
File: ffmpeg
Arg: -y -nostats -i 210723.mov.mp4 -i 210723.mov -filter_complex libvmaf=model=version=vmaf_v0.6.1neg\\:name=vmaf_neg -an -f null -
ArgList:

ffmpeg version N-109952-g52a0852ae6-20230302 Copyright (c) 2000-2023 the FFmpeg developers
  built with gcc 12.2.0 (crosstool-NG 1.25.0.90_cf9beb1)
  configuration: --prefix=/ffbuild/prefix --pkg-config-flags=--static --pkg-config=pkg-config --cross-prefix=x86_64-w64-mingw32- --arch=x86_64 --target-os=mingw32 --enable-nonfree --enable-gpl --enable-version3 --disable-debug --disable-w32threads --enable-pthreads --enable-iconv --enable-libxml2 --enable-zlib --enable-libfreetype --enable-libfribidi --enable-gmp --enable-lzma --enable-fontconfig --enable-libvorbis --enable-opencl --disable-libpulse --enable-libvmaf --disable-libxcb --disable-xlib --enable-amf --enable-libaom --enable-libaribb24 --enable-avisynth --enable-chromaprint --enable-libdav1d --enable-libdavs2 --enable-libfdk-aac --enable-ffnvcodec --enable-cuda-llvm --enable-frei0r --enable-libgme --enable-libkvazaar --enable-libass --enable-libbluray --enable-libjxl --enable-libmp3lame --enable-libopus --enable-librist --enable-libssh --enable-libtheora --enable-libvpx --enable-libwebp --enable-lv2 --disable-libmfx --enable-libvpl --enable-openal --enable-libopencore-amrnb --enable-libopencore-amrwb --enable-libopenh264 --enable-libopenjpeg --enable-libopenmpt --enable-librav1e --enable-librubberband --enable-schannel --enable-sdl2 --enable-libsoxr --enable-libsrt --enable-libsvtav1 --enable-libtwolame --enable-libuavs3d --disable-libdrm --disable-vaapi --enable-libvidstab --enable-vulkan --enable-libshaderc --enable-libplacebo --enable-libx264 --enable-libx265 --enable-libxavs2 --enable-libxvid --enable-libzimg --enable-libzvbi --extra-cflags=-DLIBTWOLAME_STATIC --extra-cxxflags= --extra-ldflags=-pthread --extra-ldexeflags= --extra-libs=-lgomp --extra-version=20230302
  libavutil      58.  3.100 / 58.  3.100
  libavcodec     60.  5.100 / 60.  5.100
  libavformat    60.  4.100 / 60.  4.100
  libavdevice    60.  2.100 / 60.  2.100
  libavfilter     9.  4.100 /  9.  4.100
  libswscale      7.  2.100 /  7.  2.100
  libswresample   4. 11.100 /  4. 11.100
  libpostproc    57.  2.100 / 57.  2.100
Input #0, mov,mp4,m4a,3gp,3g2,mj2, from '210723.mov.mp4':
  Metadata:
    major_brand     : isom
    minor_version   : 512
    compatible_brands: isomiso2mp41
    encoder         : Lavf60.4.100
  Duration: 00:02:00.02, start: 0.000000, bitrate: 6994 kb/s
  Stream #0:0[0x1](und): Video: hevc (Main 10) (hev1 / 0x31766568), yuv420p10le(tv, bt709, progressive), 1440x1080 [SAR 4:3 DAR 16:9], 6992 kb/s, 29.97 fps, 29.97 tbr, 30k tbn (default)
    Metadata:
      handler_name    : VideoHandler
      vendor_id       : [0][0][0][0]
      encoder         : Lavc60.5.100 hevc_nvenc
Input #1, mov,mp4,m4a,3gp,3g2,mj2, from '210723.mov':
  Metadata:
    major_brand     : qt  
    minor_version   : 512
    compatible_brands: qt  
    encoder         : Lavf60.4.100
  Duration: 00:02:00.02, start: 0.000000, bitrate: 34372 kb/s
  Stream #1:0[0x1]: Video: dnxhd (DNXHR LB) (AVdh / 0x68645641), yuv422p(tv, bt709), 1440x1080, 34372 kb/s, SAR 4:3 DAR 16:9, 29.97 fps, 29.97 tbr, 30k tbn (default)
    Metadata:
      handler_name    : VideoHandler
      vendor_id       : FFMP
      encoder         : Lavc60.5.100 dnxhd
Stream mapping:
  Stream #1:0 (dnxhd) -> libvmaf
  Stream #0:0 (hevc) -> libvmaf
  libvmaf:default -> Stream #0:0 (wrapped_avframe)
Press [q] to stop, [?] for help
Output #0, null, to 'pipe:':
  Metadata:
    major_brand     : isom
    minor_version   : 512
    compatible_brands: isomiso2mp41
    encoder         : Lavf60.4.100
  Stream #0:0: Video: wrapped_avframe, yuv420p10le(tv, bt709, progressive), 1440x1080 [SAR 4:3 DAR 16:9], q=2-31, 200 kb/s, 29.97 fps, 29.97 tbn
    Metadata:
      encoder         : Lavc60.5.100 wrapped_avframe
frame= 3597 fps=9.7 q=-0.0 Lsize=N/A time=00:01:59.98 bitrate=N/A speed=0.322x    
video:1686kB audio:0kB subtitle:0kB other streams:0kB global headers:0kB muxing overhead: unknown
[Parsed_libvmaf_0 @ 00000241c1f5f240] VMAF score: 97.181932
DEBUG ExitCode: 0
DEBUG Invoke-Process
File: ffmpeg
Arg: -y -nostats -hwaccel nvdec -i 210723.mov -an -c:v hevc_nvenc -preset:v p7 -profile:v main10 -rc:v constqp -rc-lookahead 1 -spatial-aq 0 -temporal-aq 1 -weighted_pred 0 -init_qpI 21 -init_qpP 21 -init_qpB 24 -qp_cb_offset 4 -qp_cr_offset 4 -b_ref_mode 1 -dpb_size 4 -multipass 1 -g 60 -bf 3 -pix_fmt yuv420p10le -color_range tv -color_primaries bt709 -color_trc bt709 -colorspace bt709 -movflags +faststart 210723.mov.mp4
ArgList:

ffmpeg version N-109952-g52a0852ae6-20230302 Copyright (c) 2000-2023 the FFmpeg developers
  built with gcc 12.2.0 (crosstool-NG 1.25.0.90_cf9beb1)
  configuration: --prefix=/ffbuild/prefix --pkg-config-flags=--static --pkg-config=pkg-config --cross-prefix=x86_64-w64-mingw32- --arch=x86_64 --target-os=mingw32 --enable-nonfree --enable-gpl --enable-version3 --disable-debug --disable-w32threads --enable-pthreads --enable-iconv --enable-libxml2 --enable-zlib --enable-libfreetype --enable-libfribidi --enable-gmp --enable-lzma --enable-fontconfig --enable-libvorbis --enable-opencl --disable-libpulse --enable-libvmaf --disable-libxcb --disable-xlib --enable-amf --enable-libaom --enable-libaribb24 --enable-avisynth --enable-chromaprint --enable-libdav1d --enable-libdavs2 --enable-libfdk-aac --enable-ffnvcodec --enable-cuda-llvm --enable-frei0r --enable-libgme --enable-libkvazaar --enable-libass --enable-libbluray --enable-libjxl --enable-libmp3lame --enable-libopus --enable-librist --enable-libssh --enable-libtheora --enable-libvpx --enable-libwebp --enable-lv2 --disable-libmfx --enable-libvpl --enable-openal --enable-libopencore-amrnb --enable-libopencore-amrwb --enable-libopenh264 --enable-libopenjpeg --enable-libopenmpt --enable-librav1e --enable-librubberband --enable-schannel --enable-sdl2 --enable-libsoxr --enable-libsrt --enable-libsvtav1 --enable-libtwolame --enable-libuavs3d --disable-libdrm --disable-vaapi --enable-libvidstab --enable-vulkan --enable-libshaderc --enable-libplacebo --enable-libx264 --enable-libx265 --enable-libxavs2 --enable-libxvid --enable-libzimg --enable-libzvbi --extra-cflags=-DLIBTWOLAME_STATIC --extra-cxxflags= --extra-ldflags=-pthread --extra-ldexeflags= --extra-libs=-lgomp --extra-version=20230302
  libavutil      58.  3.100 / 58.  3.100
  libavcodec     60.  5.100 / 60.  5.100
  libavdevice    60.  2.100 / 60.  2.100
  libavfilter     9.  4.100 /  9.  4.100
  libswscale      7.  2.100 /  7.  2.100
  libswresample   4. 11.100 /  4. 11.100
  libpostproc    57.  2.100 / 57.  2.100
  libavformat    60.  4.100 / 60.  4.100
Input #0, mov,mp4,m4a,3gp,3g2,mj2, from '210723.mov':
  Metadata:
    minor_version   : 512
    compatible_brands: qt  
    major_brand     : qt  
    encoder         : Lavf60.4.100
  Duration: 00:02:00.02, start: 0.000000, bitrate: 34372 kb/s
  Stream #0:0[0x1]: Video: dnxhd (DNXHR LB) (AVdh / 0x68645641), yuv422p(tv, bt709), 1440x1080, 34372 kb/s, SAR 4:3 DAR 16:9, 29.97 fps, 29.97 tbr, 30k tbn (default)
    Metadata:
      handler_name    : VideoHandler
      vendor_id       : FFMP
      encoder         : Lavc60.5.100 dnxhd
Stream mapping:
  Stream #0:0 -> #0:0 (dnxhd (native) -> hevc (hevc_nvenc))
Press [q] to stop, [?] for help
Incompatible pixel format 'yuv420p10le' for codec 'hevc_nvenc', auto-selecting format 'p010le'
Output #0, mp4, to '210723.mov.mp4':
    major_brand     : qt  
    minor_version   : 512
    compatible_brands: qt  
    encoder         : Lavf60.4.100
  Metadata:
  Stream #0:0: Video: hevc (Main 10) (hev1 / 0x31766568), p010le(tv, bt709, progressive), 1440x1080 [SAR 4:3 DAR 16:9], q=2-31, 2000 kb/s, 29.97 fps, 30k tbn (default)
    Metadata:
      handler_name    : VideoHandler
      vendor_id       : FFMP
    Side data:
      encoder         : Lavc60.5.100 hevc_nvenc
      cpb: bitrate max/min/avg: 0/0/2000000 buffer size: 4000000 vbv_delay: N/A
[mp4 @ 0000024d68dd9040] Starting second pass: moving the moov atom to the beginning of the file
frame= 3597 fps=157 q=20.0 Lsize=  104708kB time=00:01:59.88 bitrate=7154.8kbits/s speed=5.23x    
video:104677kB audio:0kB subtitle:0kB other streams:0kB global headers:0kB muxing overhead: 0.029947%
DEBUG ExitCode: 0
DEBUG Invoke-Process
File: ffmpeg
Arg: -y -nostats -i 210723.mov.mp4 -i 210723.mov -filter_complex libvmaf=model=version=vmaf_v0.6.1neg\\:name=vmaf_neg -an -f null -
ArgList:

ffmpeg version N-109952-g52a0852ae6-20230302 Copyright (c) 2000-2023 the FFmpeg developers
  built with gcc 12.2.0 (crosstool-NG 1.25.0.90_cf9beb1)
  configuration: --prefix=/ffbuild/prefix --pkg-config-flags=--static --pkg-config=pkg-config --cross-prefix=x86_64-w64-mingw32- --arch=x86_64 --target-os=mingw32 --enable-nonfree --enable-gpl --enable-version3 --disable-debug --disable-w32threads --enable-pthreads --enable-iconv --enable-libxml2 --enable-zlib --enable-libfreetype --enable-libfribidi --enable-gmp --enable-lzma --enable-fontconfig --enable-libvorbis --enable-opencl --disable-libpulse --enable-libvmaf --disable-libxcb --disable-xlib --enable-amf --enable-libaom --enable-libaribb24 --enable-avisynth --enable-chromaprint --enable-libdav1d --enable-libdavs2 --enable-libfdk-aac --enable-ffnvcodec --enable-cuda-llvm --enable-frei0r --enable-libgme --enable-libkvazaar --enable-libass --enable-libbluray --enable-libjxl --enable-libmp3lame --enable-libopus --enable-librist --enable-libssh --enable-libtheora --enable-libvpx --enable-libwebp --enable-lv2 --disable-libmfx --enable-libvpl --enable-openal --enable-libopencore-amrnb --enable-libopencore-amrwb --enable-libopenh264 --enable-libopenjpeg --enable-libopenmpt --enable-librav1e --enable-librubberband --enable-schannel --enable-sdl2 --enable-libsoxr --enable-libsrt --enable-libsvtav1 --enable-libtwolame --enable-libuavs3d --disable-libdrm --disable-vaapi --enable-libvidstab --enable-vulkan --enable-libshaderc --enable-libplacebo --enable-libx264 --enable-libx265 --enable-libxavs2 --enable-libxvid --enable-libzimg --enable-libzvbi --extra-cflags=-DLIBTWOLAME_STATIC --extra-cxxflags= --extra-ldflags=-pthread --extra-ldexeflags= --extra-libs=-lgomp --extra-version=20230302
  libavutil      58.  3.100 / 58.  3.100
  libavcodec     60.  5.100 / 60.  5.100
  libavformat    60.  4.100 / 60.  4.100
  libavdevice    60.  2.100 / 60.  2.100
  libavfilter     9.  4.100 /  9.  4.100
  libswscale      7.  2.100 /  7.  2.100
  libswresample   4. 11.100 /  4. 11.100
  libpostproc    57.  2.100 / 57.  2.100
Input #0, mov,mp4,m4a,3gp,3g2,mj2, from '210723.mov.mp4':
  Metadata:
    major_brand     : isom
    minor_version   : 512
    compatible_brands: isomiso2mp41
  Duration: 00:02:00.02, start: 0.000000, bitrate: 7146 kb/s
  Stream #0:0[0x1](und): Video: hevc (Main 10) (hev1 / 0x31766568), yuv420p10le(tv, bt709, progressive), 1440x1080 [SAR 4:3 DAR 16:9], 7144 kb/s, 29.97 fps, 29.97 tbr, 30k tbn (default)
    Metadata:
      handler_name    : VideoHandler
      vendor_id       : [0][0][0][0]
      encoder         : Lavc60.5.100 hevc_nvenc
    encoder         : Lavf60.4.100
Input #1, mov,mp4,m4a,3gp,3g2,mj2, from '210723.mov':
  Metadata:
    major_brand     : qt  
    minor_version   : 512
    compatible_brands: qt  
    encoder         : Lavf60.4.100
  Duration: 00:02:00.02, start: 0.000000, bitrate: 34372 kb/s
  Stream #1:0[0x1]: Video: dnxhd (DNXHR LB) (AVdh / 0x68645641), yuv422p(tv, bt709), 1440x1080, 34372 kb/s, SAR 4:3 DAR 16:9, 29.97 fps, 29.97 tbr, 30k tbn (default)
    Metadata:
      handler_name    : VideoHandler
      vendor_id       : FFMP
      encoder         : Lavc60.5.100 dnxhd
Stream mapping:
  Stream #0:0 (hevc) -> libvmaf
  libvmaf:default -> Stream #0:0 (wrapped_avframe)
Press [q] to stop, [?] for help
  Stream #1:0 (dnxhd) -> libvmaf
Output #0, null, to 'pipe:':
    major_brand     : isom
    minor_version   : 512
    compatible_brands: isomiso2mp41
    encoder         : Lavf60.4.100
  Metadata:
  Stream #0:0: Video: wrapped_avframe, yuv420p10le(tv, bt709, progressive), 1440x1080 [SAR 4:3 DAR 16:9], q=2-31, 200 kb/s, 29.97 fps, 29.97 tbn
    Metadata:
      encoder         : Lavc60.5.100 wrapped_avframe
frame= 3597 fps=9.1 q=-0.0 Lsize=N/A time=00:01:59.98 bitrate=N/A speed=0.303x    
video:1686kB audio:0kB subtitle:0kB other streams:0kB global headers:0kB muxing overhead: unknown
[Parsed_libvmaf_0 @ 000001d5e3e54e80] VMAF score: 97.181325
DEBUG ExitCode: 0
DEBUG Invoke-Process
File: ffmpeg
Arg: -y -nostats -hwaccel nvdec -i 210723.mov -an -c:v hevc_nvenc -preset:v p7 -profile:v main10 -rc:v constqp -rc-lookahead 1 -spatial-aq 0 -temporal-aq 1 -weighted_pred 0 -init_qpI 21 -init_qpP 21 -init_qpB 24 -qp_cb_offset 12 -qp_cr_offset 0 -b_ref_mode 1 -dpb_size 4 -multipass 1 -g 60 -bf 3 -pix_fmt yuv420p10le -color_range tv -color_primaries bt709 -color_trc bt709 -colorspace bt709 -movflags +faststart 210723.mov.mp4
ArgList:

ffmpeg version N-109952-g52a0852ae6-20230302 Copyright (c) 2000-2023 the FFmpeg developers
  built with gcc 12.2.0 (crosstool-NG 1.25.0.90_cf9beb1)
  configuration: --prefix=/ffbuild/prefix --pkg-config-flags=--static --pkg-config=pkg-config --cross-prefix=x86_64-w64-mingw32- --arch=x86_64 --target-os=mingw32 --enable-nonfree --enable-gpl --enable-version3 --disable-debug --disable-w32threads --enable-pthreads --enable-iconv --enable-libxml2 --enable-zlib --enable-libfreetype --enable-libfribidi --enable-gmp --enable-lzma --enable-fontconfig --enable-libvorbis --enable-opencl --disable-libpulse --enable-libvmaf --disable-libxcb --disable-xlib --enable-amf --enable-libaom --enable-libaribb24 --enable-avisynth --enable-chromaprint --enable-libdav1d --enable-libdavs2 --enable-libfdk-aac --enable-ffnvcodec --enable-cuda-llvm --enable-frei0r --enable-libgme --enable-libkvazaar --enable-libass --enable-libbluray --enable-libjxl --enable-libmp3lame --enable-libopus --enable-librist --enable-libssh --enable-libtheora --enable-libvpx --enable-libwebp --enable-lv2 --disable-libmfx --enable-libvpl --enable-openal --enable-libopencore-amrnb --enable-libopencore-amrwb --enable-libopenh264 --enable-libopenjpeg --enable-libopenmpt --enable-librav1e --enable-librubberband --enable-schannel --enable-sdl2 --enable-libsoxr --enable-libsrt --enable-libsvtav1 --enable-libtwolame --enable-libuavs3d --disable-libdrm --disable-vaapi --enable-libvidstab --enable-vulkan --enable-libshaderc --enable-libplacebo --enable-libx264 --enable-libx265 --enable-libxavs2 --enable-libxvid --enable-libzimg --enable-libzvbi --extra-cflags=-DLIBTWOLAME_STATIC --extra-cxxflags= --extra-ldflags=-pthread --extra-ldexeflags= --extra-libs=-lgomp --extra-version=20230302
  libavcodec     60.  5.100 / 60.  5.100
  libavformat    60.  4.100 / 60.  4.100
  libavdevice    60.  2.100 / 60.  2.100
  libavfilter     9.  4.100 /  9.  4.100
  libswscale      7.  2.100 /  7.  2.100
  libswresample   4. 11.100 /  4. 11.100
  libpostproc    57.  2.100 / 57.  2.100
  libavutil      58.  3.100 / 58.  3.100
Input #0, mov,mp4,m4a,3gp,3g2,mj2, from '210723.mov':
  Metadata:
    major_brand     : qt  
    minor_version   : 512
    compatible_brands: qt  
    encoder         : Lavf60.4.100
  Duration: 00:02:00.02, start: 0.000000, bitrate: 34372 kb/s
  Stream #0:0[0x1]: Video: dnxhd (DNXHR LB) (AVdh / 0x68645641), yuv422p(tv, bt709), 1440x1080, 34372 kb/s, SAR 4:3 DAR 16:9, 29.97 fps, 29.97 tbr, 30k tbn (default)
    Metadata:
      handler_name    : VideoHandler
      vendor_id       : FFMP
      encoder         : Lavc60.5.100 dnxhd
Stream mapping:
  Stream #0:0 -> #0:0 (dnxhd (native) -> hevc (hevc_nvenc))
Press [q] to stop, [?] for help
Incompatible pixel format 'yuv420p10le' for codec 'hevc_nvenc', auto-selecting format 'p010le'
Output #0, mp4, to '210723.mov.mp4':
  Metadata:
    major_brand     : qt  
    minor_version   : 512
    compatible_brands: qt  
    encoder         : Lavf60.4.100
  Stream #0:0: Video: hevc (Main 10) (hev1 / 0x31766568), p010le(tv, bt709, progressive), 1440x1080 [SAR 4:3 DAR 16:9], q=2-31, 2000 kb/s, 29.97 fps, 30k tbn (default)
    Metadata:
      handler_name    : VideoHandler
      vendor_id       : FFMP
      encoder         : Lavc60.5.100 hevc_nvenc
    Side data:
      cpb: bitrate max/min/avg: 0/0/2000000 buffer size: 4000000 vbv_delay: N/A
[mp4 @ 000001af9d239040] Starting second pass: moving the moov atom to the beginning of the file
frame= 3597 fps=150 q=20.0 Lsize=  108039kB time=00:01:59.88 bitrate=7382.5kbits/s speed=5.01x    
video:108008kB audio:0kB subtitle:0kB other streams:0kB global headers:0kB muxing overhead: 0.028990%
DEBUG ExitCode: 0
DEBUG Invoke-Process
File: ffmpeg
Arg: -y -nostats -i 210723.mov.mp4 -i 210723.mov -filter_complex libvmaf=model=version=vmaf_v0.6.1neg\\:name=vmaf_neg -an -f null -
ArgList:

ffmpeg version N-109952-g52a0852ae6-20230302 Copyright (c) 2000-2023 the FFmpeg developers
  configuration: --prefix=/ffbuild/prefix --pkg-config-flags=--static --pkg-config=pkg-config --cross-prefix=x86_64-w64-mingw32- --arch=x86_64 --target-os=mingw32 --enable-nonfree --enable-gpl --enable-version3 --disable-debug --disable-w32threads --enable-pthreads --enable-iconv --enable-libxml2 --enable-zlib --enable-libfreetype --enable-libfribidi --enable-gmp --enable-lzma --enable-fontconfig --enable-libvorbis --enable-opencl --disable-libpulse --enable-libvmaf --disable-libxcb --disable-xlib --enable-amf --enable-libaom --enable-libaribb24 --enable-avisynth --enable-chromaprint --enable-libdav1d --enable-libdavs2 --enable-libfdk-aac --enable-ffnvcodec --enable-cuda-llvm --enable-frei0r --enable-libgme --enable-libkvazaar --enable-libass --enable-libbluray --enable-libjxl --enable-libmp3lame --enable-libopus --enable-librist --enable-libssh --enable-libtheora --enable-libvpx --enable-libwebp --enable-lv2 --disable-libmfx --enable-libvpl --enable-openal --enable-libopencore-amrnb --enable-libopencore-amrwb --enable-libopenh264 --enable-libopenjpeg --enable-libopenmpt --enable-librav1e --enable-librubberband --enable-schannel --enable-sdl2 --enable-libsoxr --enable-libsrt --enable-libsvtav1 --enable-libtwolame --enable-libuavs3d --disable-libdrm --disable-vaapi --enable-libvidstab --enable-vulkan --enable-libshaderc --enable-libplacebo --enable-libx264 --enable-libx265 --enable-libxavs2 --enable-libxvid --enable-libzimg --enable-libzvbi --extra-cflags=-DLIBTWOLAME_STATIC --extra-cxxflags= --extra-ldflags=-pthread --extra-ldexeflags= --extra-libs=-lgomp --extra-version=20230302
  libavutil      58.  3.100 / 58.  3.100
  libavcodec     60.  5.100 / 60.  5.100
  libavformat    60.  4.100 / 60.  4.100
  libavdevice    60.  2.100 / 60.  2.100
  libavfilter     9.  4.100 /  9.  4.100
  libswscale      7.  2.100 /  7.  2.100
  libswresample   4. 11.100 /  4. 11.100
  libpostproc    57.  2.100 / 57.  2.100
  built with gcc 12.2.0 (crosstool-NG 1.25.0.90_cf9beb1)
Input #0, mov,mp4,m4a,3gp,3g2,mj2, from '210723.mov.mp4':
    major_brand     : isom
    minor_version   : 512
    compatible_brands: isomiso2mp41
    encoder         : Lavf60.4.100
  Metadata:
  Duration: 00:02:00.02, start: 0.000000, bitrate: 7374 kb/s
  Stream #0:0[0x1](und): Video: hevc (Main 10) (hev1 / 0x31766568), yuv420p10le(tv, bt709, progressive), 1440x1080 [SAR 4:3 DAR 16:9], 7372 kb/s, 29.97 fps, 29.97 tbr, 30k tbn (default)
    Metadata:
      handler_name    : VideoHandler
      vendor_id       : [0][0][0][0]
      encoder         : Lavc60.5.100 hevc_nvenc
Input #1, mov,mp4,m4a,3gp,3g2,mj2, from '210723.mov':
  Metadata:
    major_brand     : qt  
    minor_version   : 512
    compatible_brands: qt  
    encoder         : Lavf60.4.100
  Duration: 00:02:00.02, start: 0.000000, bitrate: 34372 kb/s
  Stream #1:0[0x1]: Video: dnxhd (DNXHR LB) (AVdh / 0x68645641), yuv422p(tv, bt709), 1440x1080, 34372 kb/s, SAR 4:3 DAR 16:9, 29.97 fps, 29.97 tbr, 30k tbn (default)
    Metadata:
      handler_name    : VideoHandler
      vendor_id       : FFMP
      encoder         : Lavc60.5.100 dnxhd
Stream mapping:
  Stream #0:0 (hevc) -> libvmaf
  Stream #1:0 (dnxhd) -> libvmaf
  libvmaf:default -> Stream #0:0 (wrapped_avframe)
Press [q] to stop, [?] for help
Output #0, null, to 'pipe:':
  Metadata:
    major_brand     : isom
    minor_version   : 512
    compatible_brands: isomiso2mp41
    encoder         : Lavf60.4.100
  Stream #0:0: Video: wrapped_avframe, yuv420p10le(tv, bt709, progressive), 1440x1080 [SAR 4:3 DAR 16:9], q=2-31, 200 kb/s, 29.97 fps, 29.97 tbn
    Metadata:
      encoder         : Lavc60.5.100 wrapped_avframe
frame= 3597 fps=8.6 q=-0.0 Lsize=N/A time=00:01:59.98 bitrate=N/A speed=0.288x    
video:1686kB audio:0kB subtitle:0kB other streams:0kB global headers:0kB muxing overhead: unknown
[Parsed_libvmaf_0 @ 0000023ea8471c00] VMAF score: 97.181569
DEBUG ExitCode: 0
DEBUG Invoke-Process
File: ffmpeg
Arg: -y -nostats -hwaccel nvdec -i 210723.mov -an -c:v hevc_nvenc -preset:v p7 -profile:v main10 -rc:v constqp -rc-lookahead 1 -spatial-aq 0 -temporal-aq 1 -weighted_pred 0 -init_qpI 21 -init_qpP 21 -init_qpB 24 -qp_cb_offset 0 -qp_cr_offset 12 -b_ref_mode 1 -dpb_size 4 -multipass 1 -g 60 -bf 3 -pix_fmt yuv420p10le -color_range tv -color_primaries bt709 -color_trc bt709 -colorspace bt709 -movflags +faststart 210723.mov.mp4
ArgList:

ffmpeg version N-109952-g52a0852ae6-20230302 Copyright (c) 2000-2023 the FFmpeg developers
  built with gcc 12.2.0 (crosstool-NG 1.25.0.90_cf9beb1)
  configuration: --prefix=/ffbuild/prefix --pkg-config-flags=--static --pkg-config=pkg-config --cross-prefix=x86_64-w64-mingw32- --arch=x86_64 --target-os=mingw32 --enable-nonfree --enable-gpl --enable-version3 --disable-debug --disable-w32threads --enable-pthreads --enable-iconv --enable-libxml2 --enable-zlib --enable-libfreetype --enable-libfribidi --enable-gmp --enable-lzma --enable-fontconfig --enable-libvorbis --enable-opencl --disable-libpulse --enable-libvmaf --disable-libxcb --disable-xlib --enable-amf --enable-libaom --enable-libaribb24 --enable-avisynth --enable-chromaprint --enable-libdav1d --enable-libdavs2 --enable-libfdk-aac --enable-ffnvcodec --enable-cuda-llvm --enable-frei0r --enable-libgme --enable-libkvazaar --enable-libass --enable-libbluray --enable-libjxl --enable-libmp3lame --enable-libopus --enable-librist --enable-libssh --enable-libtheora --enable-libvpx --enable-libwebp --enable-lv2 --disable-libmfx --enable-libvpl --enable-openal --enable-libopencore-amrnb --enable-libopencore-amrwb --enable-libopenh264 --enable-libopenjpeg --enable-libopenmpt --enable-librav1e --enable-librubberband --enable-schannel --enable-sdl2 --enable-libsoxr --enable-libsrt --enable-libsvtav1 --enable-libtwolame --enable-libuavs3d --disable-libdrm --disable-vaapi --enable-libvidstab --enable-vulkan --enable-libshaderc --enable-libplacebo --enable-libx264 --enable-libx265 --enable-libxavs2 --enable-libxvid --enable-libzimg --enable-libzvbi --extra-cflags=-DLIBTWOLAME_STATIC --extra-cxxflags= --extra-ldflags=-pthread --extra-ldexeflags= --extra-libs=-lgomp --extra-version=20230302
  libavutil      58.  3.100 / 58.  3.100
  libavcodec     60.  5.100 / 60.  5.100
  libavformat    60.  4.100 / 60.  4.100
  libavdevice    60.  2.100 / 60.  2.100
  libavfilter     9.  4.100 /  9.  4.100
  libswscale      7.  2.100 /  7.  2.100
  libswresample   4. 11.100 /  4. 11.100
  libpostproc    57.  2.100 / 57.  2.100
Input #0, mov,mp4,m4a,3gp,3g2,mj2, from '210723.mov':
  Metadata:
    major_brand     : qt  
    minor_version   : 512
    compatible_brands: qt  
    encoder         : Lavf60.4.100
  Duration: 00:02:00.02, start: 0.000000, bitrate: 34372 kb/s
  Stream #0:0[0x1]: Video: dnxhd (DNXHR LB) (AVdh / 0x68645641), yuv422p(tv, bt709), 1440x1080, 34372 kb/s, SAR 4:3 DAR 16:9, 29.97 fps, 29.97 tbr, 30k tbn (default)
    Metadata:
      handler_name    : VideoHandler
      vendor_id       : FFMP
      encoder         : Lavc60.5.100 dnxhd
Stream mapping:
Press [q] to stop, [?] for help
  Stream #0:0 -> #0:0 (dnxhd (native) -> hevc (hevc_nvenc))
Incompatible pixel format 'yuv420p10le' for codec 'hevc_nvenc', auto-selecting format 'p010le'
Output #0, mp4, to '210723.mov.mp4':
  Metadata:
    major_brand     : qt  
    minor_version   : 512
    compatible_brands: qt  
    encoder         : Lavf60.4.100
  Stream #0:0: Video: hevc (Main 10) (hev1 / 0x31766568), p010le(tv, bt709, progressive), 1440x1080 [SAR 4:3 DAR 16:9], q=2-31, 2000 kb/s, 29.97 fps, 30k tbn (default)
    Metadata:
      handler_name    : VideoHandler
      vendor_id       : FFMP
      encoder         : Lavc60.5.100 hevc_nvenc
    Side data:
      cpb: bitrate max/min/avg: 0/0/2000000 buffer size: 4000000 vbv_delay: N/A
[mp4 @ 000001d59fcc9040] Starting second pass: moving the moov atom to the beginning of the file
frame= 3597 fps=153 q=20.0 Lsize=  106595kB time=00:01:59.88 bitrate=7283.8kbits/s speed=5.09x    
video:106564kB audio:0kB subtitle:0kB other streams:0kB global headers:0kB muxing overhead: 0.029401%
DEBUG ExitCode: 0
DEBUG Invoke-Process
File: ffmpeg
Arg: -y -nostats -i 210723.mov.mp4 -i 210723.mov -filter_complex libvmaf=model=version=vmaf_v0.6.1neg\\:name=vmaf_neg -an -f null -
ArgList:

ffmpeg version N-109952-g52a0852ae6-20230302 Copyright (c) 2000-2023 the FFmpeg developers
  built with gcc 12.2.0 (crosstool-NG 1.25.0.90_cf9beb1)
  configuration: --prefix=/ffbuild/prefix --pkg-config-flags=--static --pkg-config=pkg-config --cross-prefix=x86_64-w64-mingw32- --arch=x86_64 --target-os=mingw32 --enable-nonfree --enable-gpl --enable-version3 --disable-debug --disable-w32threads --enable-pthreads --enable-iconv --enable-libxml2 --enable-zlib --enable-libfreetype --enable-libfribidi --enable-gmp --enable-lzma --enable-fontconfig --enable-libvorbis --enable-opencl --disable-libpulse --enable-libvmaf --disable-libxcb --disable-xlib --enable-amf --enable-libaom --enable-libaribb24 --enable-avisynth --enable-chromaprint --enable-libdav1d --enable-libdavs2 --enable-libfdk-aac --enable-ffnvcodec --enable-cuda-llvm --enable-frei0r --enable-libgme --enable-libkvazaar --enable-libass --enable-libbluray --enable-libjxl --enable-libmp3lame --enable-libopus --enable-librist --enable-libssh --enable-libtheora --enable-libvpx --enable-libwebp --enable-lv2 --disable-libmfx --enable-libvpl --enable-openal --enable-libopencore-amrnb --enable-libopencore-amrwb --enable-libopenh264 --enable-libopenjpeg --enable-libopenmpt --enable-librav1e --enable-librubberband --enable-schannel --enable-sdl2 --enable-libsoxr --enable-libsrt --enable-libsvtav1 --enable-libtwolame --enable-libuavs3d --disable-libdrm --disable-vaapi --enable-libvidstab --enable-vulkan --enable-libshaderc --enable-libplacebo --enable-libx264 --enable-libx265 --enable-libxavs2 --enable-libxvid --enable-libzimg --enable-libzvbi --extra-cflags=-DLIBTWOLAME_STATIC --extra-cxxflags= --extra-ldflags=-pthread --extra-ldexeflags= --extra-libs=-lgomp --extra-version=20230302
  libavutil      58.  3.100 / 58.  3.100
  libavcodec     60.  5.100 / 60.  5.100
  libavformat    60.  4.100 / 60.  4.100
  libavdevice    60.  2.100 / 60.  2.100
  libavfilter     9.  4.100 /  9.  4.100
  libswscale      7.  2.100 /  7.  2.100
  libswresample   4. 11.100 /  4. 11.100
  libpostproc    57.  2.100 / 57.  2.100
Input #0, mov,mp4,m4a,3gp,3g2,mj2, from '210723.mov.mp4':
  Metadata:
    major_brand     : isom
    minor_version   : 512
    compatible_brands: isomiso2mp41
    encoder         : Lavf60.4.100
  Duration: 00:02:00.02, start: 0.000000, bitrate: 7275 kb/s
  Stream #0:0[0x1](und): Video: hevc (Main 10) (hev1 / 0x31766568), yuv420p10le(tv, bt709, progressive), 1440x1080 [SAR 4:3 DAR 16:9], 7273 kb/s, 29.97 fps, 29.97 tbr, 30k tbn (default)
    Metadata:
      handler_name    : VideoHandler
      vendor_id       : [0][0][0][0]
      encoder         : Lavc60.5.100 hevc_nvenc
Input #1, mov,mp4,m4a,3gp,3g2,mj2, from '210723.mov':
  Metadata:
    minor_version   : 512
    compatible_brands: qt  
    encoder         : Lavf60.4.100
  Duration: 00:02:00.02, start: 0.000000, bitrate: 34372 kb/s
  Stream #1:0[0x1]: Video: dnxhd (DNXHR LB) (AVdh / 0x68645641), yuv422p(tv, bt709), 1440x1080, 34372 kb/s, SAR 4:3 DAR 16:9, 29.97 fps, 29.97 tbr, 30k tbn (default)
    Metadata:
      handler_name    : VideoHandler
      vendor_id       : FFMP
      encoder         : Lavc60.5.100 dnxhd
    major_brand     : qt  
Stream mapping:
  Stream #0:0 (hevc) -> libvmaf
  Stream #1:0 (dnxhd) -> libvmaf
  libvmaf:default -> Stream #0:0 (wrapped_avframe)
Press [q] to stop, [?] for help
Output #0, null, to 'pipe:':
    major_brand     : isom
    minor_version   : 512
    compatible_brands: isomiso2mp41
    encoder         : Lavf60.4.100
  Stream #0:0: Video: wrapped_avframe, yuv420p10le(tv, bt709, progressive), 1440x1080 [SAR 4:3 DAR 16:9], q=2-31, 200 kb/s, 29.97 fps, 29.97 tbn
  Metadata:
    Metadata:
      encoder         : Lavc60.5.100 wrapped_avframe
frame= 3597 fps=9.2 q=-0.0 Lsize=N/A time=00:01:59.98 bitrate=N/A speed=0.306x    
video:1686kB audio:0kB subtitle:0kB other streams:0kB global headers:0kB muxing overhead: unknown
[Parsed_libvmaf_0 @ 000001ea4e1f15c0] VMAF score: 97.181220
DEBUG ExitCode: 0
**********************
PowerShell transcript end
End time: 20230516183924
**********************
